<?xml version="1.0" standalone="no"?>
<!DOCTYPE svg PUBLIC "-//W3C//DTD SVG 20010904//EN"
 "http://www.w3.org/TR/2001/REC-SVG-20010904/DTD/svg10.dtd">
<svg version="1.0" xmlns="http://www.w3.org/2000/svg"
 width="952.000000pt" height="931.000000pt" viewBox="0 0 952.000000 931.000000"
 preserveAspectRatio="xMidYMid meet">

<g transform="translate(0.000000,931.000000) scale(0.100000,-0.100000)"
fill="#000000" stroke="none">
<path d="M3590 7469 c-410 -27 -780 -156 -1130 -392 -115 -78 -380 -349 -472
-482 -189 -275 -295 -521 -359 -840 -27 -135 -37 -455 -20 -615 27 -247 90
-477 185 -671 162 -335 466 -671 788 -871 122 -75 311 -168 371 -180 48 -10
58 -9 88 8 18 11 57 49 87 84 30 36 89 106 131 155 43 50 146 171 229 270 84
99 191 225 238 280 47 55 129 151 183 212 160 187 160 189 -9 379 -225 255
-271 307 -370 424 -58 69 -149 177 -202 240 -52 63 -124 149 -159 190 -34 41
-99 118 -143 170 -44 52 -110 129 -146 170 -36 41 -94 109 -129 150 l-62 75
48 6 c26 3 266 5 531 5 l484 -1 117 -120 c64 -66 157 -170 206 -231 203 -250
462 -551 501 -581 32 -24 38 -25 58 -12 21 13 118 119 236 259 63 74 274 319
400 465 47 54 110 128 140 166 30 37 123 145 205 240 83 94 204 236 270 314
66 78 170 200 231 272 62 72 158 189 214 260 57 70 116 142 133 160 16 17 27
36 23 41 -7 12 -2721 13 -2896 1z"/>
<path d="M6133 5815 c-20 -14 -317 -356 -508 -585 -44 -52 -111 -131 -150
-175 -128 -143 -267 -307 -291 -343 -29 -42 -31 -96 -6 -133 9 -15 48 -60 86
-100 38 -41 171 -195 295 -344 124 -148 257 -308 297 -355 446 -528 626 -748
619 -759 -2 -5 -235 -6 -517 -4 l-513 5 -54 52 c-52 50 -201 219 -376 426
-296 351 -304 360 -378 428 -26 23 -54 42 -63 42 -42 0 -240 -222 -856 -960
-108 -129 -242 -289 -299 -356 -354 -412 -699 -837 -699 -860 0 -13 174 -14
1498 -11 1334 3 1508 5 1597 20 334 55 634 182 903 384 174 130 389 363 520
563 407 621 454 1390 125 2055 -104 209 -237 388 -424 571 -311 303 -699 514
-806 439z"/>
</g>
</svg>
